<svg id="outline" xmlns="http://www.w3.org/2000/svg" width="64" height="64" viewBox="0 0 64 64">
  <path d="M41.99805,29.5a2.49566,2.49566,0,0,0-2.498,2.498v3.50781l-1.81738,1.81836a1.51981,1.51981,0,0,0-.294-.41309,1.503,1.503,0,0,0-2.12109,0L32.085,40.09277c-.03277.0329-.05694.07154-.08716.1062-.02929-.03338-.05249-.07061-.08423-.10229,0,0-2.44824-2.44824-3.18017-3.19043a1.5173,1.5173,0,0,0-2.127,0,1.45792,1.45792,0,0,0-.28467.42786L24.5,35.51172V32A2.51494,2.51494,0,0,0,22,29.5a.49971.49971,0,0,0-.5.5v2a.5.5,0,0,0,1,0V30.58691A1.52572,1.52572,0,0,1,23.5,32v3.71973a.50031.50031,0,0,0,.147.35449l4.6836,4.68066c.04541.03809.083.0752.126.11817l.48.48047a.49995.49995,0,1,0,.707-.707l-.48828-.48925a1.77923,1.77923,0,0,0-.14892-.1377L27.31738,38.33c-.0061-.00727-.00805-.01642-.01465-.02338a.49864.49864,0,0,1,.00635-.68848.504.504,0,0,1,.71485-.00683c.73046.74023,3.18261,3.19238,3.18261,3.19238a.99269.99269,0,0,1,.29346.70606V45.5h-5V44a.50053.50053,0,0,0-.084-.27734l-3.916-5.874V36a.5.5,0,0,0-1,0v2a.50053.50053,0,0,0,.084.27734l3.916,5.874V45.5H25a.5.5,0,0,0,0,1H39a.5.5,0,0,0,0-1h-.5V44.15137l3.916-5.874A.50053.50053,0,0,0,42.5,38l-.002-8A.49972.49972,0,0,0,41.99805,29.5ZM41.5,37.84863l-3.916,5.874A.50053.50053,0,0,0,37.5,44v1.5h-5V41.50684a.99472.99472,0,0,1,.29248-.707l3.18213-3.18164a.50012.50012,0,0,1,.71973.69434l-2.334,2.334a.49995.49995,0,0,0,.707.707l2.32129-2.32129.02149-.02149,2.89941-2.90039A.49871.49871,0,0,0,40.5,35.71777V31.99805a1.50026,1.50026,0,0,1,1-1.41309Z"/>
  <path d="M32,21.5a2.98745,2.98745,0,0,0-1.86383,5.33215A5.50465,5.50465,0,0,0,26.5,32a.49971.49971,0,0,0,.5.5H37a.49971.49971,0,0,0,.5-.5,5.50493,5.50493,0,0,0-3.63623-5.16785A2.98742,2.98742,0,0,0,32,21.5Zm4.47266,10H27.52783a4.50031,4.50031,0,0,1,8.94483,0ZM32,26.5a2,2,0,1,1,2-2A2.00229,2.00229,0,0,1,32,26.5Z"/>
  <path d="M32.5,18.999V18a.5.5,0,0,0-1,0v.999a.5.5,0,0,0,1,0Z"/>
  <path d="M29.252,20.23633a.49938.49938,0,0,0,.43262-.75l-.49951-.86621a.50008.50008,0,1,0-.86621.5l.49951.86621A.50057.50057,0,0,0,29.252,20.23633Z"/>
  <path d="M26.98975,22.18066a.49286.49286,0,0,0,.24951.06739.49976.49976,0,0,0,.25049-.93262l-.86573-.5a.49966.49966,0,1,0-.5.86523Z"/>
  <path d="M25.00391,24.49609a.49971.49971,0,0,0,.5.5h.99951a.5.5,0,0,0,0-1h-.99951A.49972.49972,0,0,0,25.00391,24.49609Z"/>
  <path d="M34.74805,20.23633a.499.499,0,0,0,.43261-.25l.5-.86621a.49966.49966,0,1,0-.86523-.5l-.5.86621a.5002.5002,0,0,0,.43262.75Z"/>
  <path d="M37.376,20.81543l-.86524.5a.49991.49991,0,0,0,.25.93262.4933.4933,0,0,0,.25-.06739l.86524-.5a.49966.49966,0,0,0-.5-.86523Z"/>
  <path d="M36.99707,24.49609a.49971.49971,0,0,0,.5.5h.999a.5.5,0,0,0,0-1h-.999A.49972.49972,0,0,0,36.99707,24.49609Z"/>
  <circle cx="22" cy="34" r="0.5"/>
</svg>
